<mxfile host="Electron" agent="Mozilla/5.0 (Windows NT 10.0; Win64; x64) AppleWebKit/537.36 (KHTML, like Gecko) draw.io/26.0.9 Chrome/128.0.6613.186 Electron/32.2.5 Safari/537.36" version="26.0.9">
  <diagram id="R2lEEEUBdFMjLlhIrx00" name="Page-1">
    <mxGraphModel dx="792" dy="1592" grid="1" gridSize="10" guides="1" tooltips="1" connect="1" arrows="1" fold="1" page="1" pageScale="1" pageWidth="850" pageHeight="1100" math="0" shadow="0" extFonts="Permanent Marker^https://fonts.googleapis.com/css?family=Permanent+Marker">
      <root>
        <mxCell id="0" />
        <mxCell id="1" parent="0" />
        <mxCell id="aB8ThcC7plSNmvLs0VB_-16" value="EVENT (fairs)" style="shape=table;startSize=30;container=1;collapsible=0;childLayout=tableLayout;strokeColor=#6c8ebf;fontSize=16;fillColor=#dae8fc;" vertex="1" parent="1">
          <mxGeometry x="410" y="-430" width="250" height="390" as="geometry" />
        </mxCell>
        <mxCell id="aB8ThcC7plSNmvLs0VB_-213" style="shape=tableRow;horizontal=0;startSize=0;swimlaneHead=0;swimlaneBody=0;strokeColor=inherit;top=0;left=0;bottom=0;right=0;collapsible=0;dropTarget=0;fillColor=none;points=[[0,0.5],[1,0.5]];portConstraint=eastwest;fontSize=16;" vertex="1" parent="aB8ThcC7plSNmvLs0VB_-16">
          <mxGeometry y="30" width="250" height="60" as="geometry" />
        </mxCell>
        <mxCell id="aB8ThcC7plSNmvLs0VB_-214" style="shape=partialRectangle;html=1;whiteSpace=wrap;connectable=0;strokeColor=#6c8ebf;overflow=hidden;fillColor=#dae8fc;top=0;left=0;bottom=0;right=0;pointerEvents=1;fontSize=16;" vertex="1" parent="aB8ThcC7plSNmvLs0VB_-213">
          <mxGeometry width="60" height="60" as="geometry">
            <mxRectangle width="60" height="60" as="alternateBounds" />
          </mxGeometry>
        </mxCell>
        <mxCell id="aB8ThcC7plSNmvLs0VB_-215" value="ATT" style="shape=partialRectangle;html=1;whiteSpace=wrap;connectable=0;strokeColor=#6c8ebf;overflow=hidden;fillColor=#dae8fc;top=0;left=0;bottom=0;right=0;pointerEvents=1;fontSize=16;" vertex="1" parent="aB8ThcC7plSNmvLs0VB_-213">
          <mxGeometry x="60" width="110" height="60" as="geometry">
            <mxRectangle width="110" height="60" as="alternateBounds" />
          </mxGeometry>
        </mxCell>
        <mxCell id="aB8ThcC7plSNmvLs0VB_-216" value="TYPE" style="shape=partialRectangle;html=1;whiteSpace=wrap;connectable=0;strokeColor=#6c8ebf;overflow=hidden;fillColor=#dae8fc;top=0;left=0;bottom=0;right=0;pointerEvents=1;fontSize=16;" vertex="1" parent="aB8ThcC7plSNmvLs0VB_-213">
          <mxGeometry x="170" width="80" height="60" as="geometry">
            <mxRectangle width="80" height="60" as="alternateBounds" />
          </mxGeometry>
        </mxCell>
        <mxCell id="aB8ThcC7plSNmvLs0VB_-17" value="" style="shape=tableRow;horizontal=0;startSize=0;swimlaneHead=0;swimlaneBody=0;strokeColor=inherit;top=0;left=0;bottom=0;right=0;collapsible=0;dropTarget=0;fillColor=none;points=[[0,0.5],[1,0.5]];portConstraint=eastwest;fontSize=16;" vertex="1" parent="aB8ThcC7plSNmvLs0VB_-16">
          <mxGeometry y="90" width="250" height="60" as="geometry" />
        </mxCell>
        <mxCell id="aB8ThcC7plSNmvLs0VB_-18" value="PK&lt;span style=&quot;white-space: pre;&quot;&gt;&#x9;&lt;/span&gt;" style="shape=partialRectangle;html=1;whiteSpace=wrap;connectable=0;overflow=hidden;top=0;left=0;bottom=0;right=0;pointerEvents=1;fontSize=16;" vertex="1" parent="aB8ThcC7plSNmvLs0VB_-17">
          <mxGeometry width="60" height="60" as="geometry">
            <mxRectangle width="60" height="60" as="alternateBounds" />
          </mxGeometry>
        </mxCell>
        <mxCell id="aB8ThcC7plSNmvLs0VB_-19" value="event_id" style="shape=partialRectangle;html=1;whiteSpace=wrap;connectable=0;overflow=hidden;top=0;left=0;bottom=0;right=0;pointerEvents=1;fontSize=16;" vertex="1" parent="aB8ThcC7plSNmvLs0VB_-17">
          <mxGeometry x="60" width="110" height="60" as="geometry">
            <mxRectangle width="110" height="60" as="alternateBounds" />
          </mxGeometry>
        </mxCell>
        <mxCell id="aB8ThcC7plSNmvLs0VB_-20" value="int (auto)" style="shape=partialRectangle;html=1;whiteSpace=wrap;connectable=0;overflow=hidden;top=0;left=0;bottom=0;right=0;pointerEvents=1;fontSize=16;" vertex="1" parent="aB8ThcC7plSNmvLs0VB_-17">
          <mxGeometry x="170" width="80" height="60" as="geometry">
            <mxRectangle width="80" height="60" as="alternateBounds" />
          </mxGeometry>
        </mxCell>
        <mxCell id="aB8ThcC7plSNmvLs0VB_-21" value="" style="shape=tableRow;horizontal=0;startSize=0;swimlaneHead=0;swimlaneBody=0;strokeColor=inherit;top=0;left=0;bottom=0;right=0;collapsible=0;dropTarget=0;fillColor=none;points=[[0,0.5],[1,0.5]];portConstraint=eastwest;fontSize=16;" vertex="1" parent="aB8ThcC7plSNmvLs0VB_-16">
          <mxGeometry y="150" width="250" height="60" as="geometry" />
        </mxCell>
        <mxCell id="aB8ThcC7plSNmvLs0VB_-22" value="" style="shape=partialRectangle;html=1;whiteSpace=wrap;connectable=0;strokeColor=inherit;overflow=hidden;fillColor=none;top=0;left=0;bottom=0;right=0;pointerEvents=1;fontSize=16;" vertex="1" parent="aB8ThcC7plSNmvLs0VB_-21">
          <mxGeometry width="60" height="60" as="geometry">
            <mxRectangle width="60" height="60" as="alternateBounds" />
          </mxGeometry>
        </mxCell>
        <mxCell id="aB8ThcC7plSNmvLs0VB_-23" value="event_name" style="shape=partialRectangle;html=1;whiteSpace=wrap;connectable=0;strokeColor=inherit;overflow=hidden;fillColor=none;top=0;left=0;bottom=0;right=0;pointerEvents=1;fontSize=16;align=center;" vertex="1" parent="aB8ThcC7plSNmvLs0VB_-21">
          <mxGeometry x="60" width="110" height="60" as="geometry">
            <mxRectangle width="110" height="60" as="alternateBounds" />
          </mxGeometry>
        </mxCell>
        <mxCell id="aB8ThcC7plSNmvLs0VB_-24" value="TEXT&lt;div&gt;NN&lt;/div&gt;" style="shape=partialRectangle;html=1;whiteSpace=wrap;connectable=0;strokeColor=inherit;overflow=hidden;fillColor=none;top=0;left=0;bottom=0;right=0;pointerEvents=1;fontSize=16;" vertex="1" parent="aB8ThcC7plSNmvLs0VB_-21">
          <mxGeometry x="170" width="80" height="60" as="geometry">
            <mxRectangle width="80" height="60" as="alternateBounds" />
          </mxGeometry>
        </mxCell>
        <mxCell id="aB8ThcC7plSNmvLs0VB_-25" value="" style="shape=tableRow;horizontal=0;startSize=0;swimlaneHead=0;swimlaneBody=0;strokeColor=inherit;top=0;left=0;bottom=0;right=0;collapsible=0;dropTarget=0;fillColor=none;points=[[0,0.5],[1,0.5]];portConstraint=eastwest;fontSize=16;" vertex="1" parent="aB8ThcC7plSNmvLs0VB_-16">
          <mxGeometry y="210" width="250" height="60" as="geometry" />
        </mxCell>
        <mxCell id="aB8ThcC7plSNmvLs0VB_-26" value="" style="shape=partialRectangle;html=1;whiteSpace=wrap;connectable=0;strokeColor=inherit;overflow=hidden;fillColor=none;top=0;left=0;bottom=0;right=0;pointerEvents=1;fontSize=16;" vertex="1" parent="aB8ThcC7plSNmvLs0VB_-25">
          <mxGeometry width="60" height="60" as="geometry">
            <mxRectangle width="60" height="60" as="alternateBounds" />
          </mxGeometry>
        </mxCell>
        <mxCell id="aB8ThcC7plSNmvLs0VB_-27" value="start_date" style="shape=partialRectangle;html=1;whiteSpace=wrap;connectable=0;strokeColor=inherit;overflow=hidden;fillColor=none;top=0;left=0;bottom=0;right=0;pointerEvents=1;fontSize=16;" vertex="1" parent="aB8ThcC7plSNmvLs0VB_-25">
          <mxGeometry x="60" width="110" height="60" as="geometry">
            <mxRectangle width="110" height="60" as="alternateBounds" />
          </mxGeometry>
        </mxCell>
        <mxCell id="aB8ThcC7plSNmvLs0VB_-28" value="TEXT&lt;div&gt;NN&lt;/div&gt;" style="shape=partialRectangle;html=1;whiteSpace=wrap;connectable=0;strokeColor=inherit;overflow=hidden;fillColor=none;top=0;left=0;bottom=0;right=0;pointerEvents=1;fontSize=16;" vertex="1" parent="aB8ThcC7plSNmvLs0VB_-25">
          <mxGeometry x="170" width="80" height="60" as="geometry">
            <mxRectangle width="80" height="60" as="alternateBounds" />
          </mxGeometry>
        </mxCell>
        <mxCell id="aB8ThcC7plSNmvLs0VB_-72" style="shape=tableRow;horizontal=0;startSize=0;swimlaneHead=0;swimlaneBody=0;strokeColor=inherit;top=0;left=0;bottom=0;right=0;collapsible=0;dropTarget=0;fillColor=none;points=[[0,0.5],[1,0.5]];portConstraint=eastwest;fontSize=16;" vertex="1" parent="aB8ThcC7plSNmvLs0VB_-16">
          <mxGeometry y="270" width="250" height="60" as="geometry" />
        </mxCell>
        <mxCell id="aB8ThcC7plSNmvLs0VB_-73" style="shape=partialRectangle;html=1;whiteSpace=wrap;connectable=0;strokeColor=inherit;overflow=hidden;fillColor=none;top=0;left=0;bottom=0;right=0;pointerEvents=1;fontSize=16;" vertex="1" parent="aB8ThcC7plSNmvLs0VB_-72">
          <mxGeometry width="60" height="60" as="geometry">
            <mxRectangle width="60" height="60" as="alternateBounds" />
          </mxGeometry>
        </mxCell>
        <mxCell id="aB8ThcC7plSNmvLs0VB_-74" value="end_date" style="shape=partialRectangle;html=1;whiteSpace=wrap;connectable=0;strokeColor=inherit;overflow=hidden;fillColor=none;top=0;left=0;bottom=0;right=0;pointerEvents=1;fontSize=16;align=center;" vertex="1" parent="aB8ThcC7plSNmvLs0VB_-72">
          <mxGeometry x="60" width="110" height="60" as="geometry">
            <mxRectangle width="110" height="60" as="alternateBounds" />
          </mxGeometry>
        </mxCell>
        <mxCell id="aB8ThcC7plSNmvLs0VB_-75" value="TEXT" style="shape=partialRectangle;html=1;whiteSpace=wrap;connectable=0;strokeColor=inherit;overflow=hidden;fillColor=none;top=0;left=0;bottom=0;right=0;pointerEvents=1;fontSize=16;" vertex="1" parent="aB8ThcC7plSNmvLs0VB_-72">
          <mxGeometry x="170" width="80" height="60" as="geometry">
            <mxRectangle width="80" height="60" as="alternateBounds" />
          </mxGeometry>
        </mxCell>
        <mxCell id="aB8ThcC7plSNmvLs0VB_-68" style="shape=tableRow;horizontal=0;startSize=0;swimlaneHead=0;swimlaneBody=0;strokeColor=inherit;top=0;left=0;bottom=0;right=0;collapsible=0;dropTarget=0;fillColor=none;points=[[0,0.5],[1,0.5]];portConstraint=eastwest;fontSize=16;" vertex="1" parent="aB8ThcC7plSNmvLs0VB_-16">
          <mxGeometry y="330" width="250" height="60" as="geometry" />
        </mxCell>
        <mxCell id="aB8ThcC7plSNmvLs0VB_-69" style="shape=partialRectangle;html=1;whiteSpace=wrap;connectable=0;strokeColor=inherit;overflow=hidden;fillColor=none;top=0;left=0;bottom=0;right=0;pointerEvents=1;fontSize=16;" vertex="1" parent="aB8ThcC7plSNmvLs0VB_-68">
          <mxGeometry width="60" height="60" as="geometry">
            <mxRectangle width="60" height="60" as="alternateBounds" />
          </mxGeometry>
        </mxCell>
        <mxCell id="aB8ThcC7plSNmvLs0VB_-70" value="total_sold" style="shape=partialRectangle;html=1;whiteSpace=wrap;connectable=0;strokeColor=inherit;overflow=hidden;fillColor=none;top=0;left=0;bottom=0;right=0;pointerEvents=1;fontSize=16;align=center;" vertex="1" parent="aB8ThcC7plSNmvLs0VB_-68">
          <mxGeometry x="60" width="110" height="60" as="geometry">
            <mxRectangle width="110" height="60" as="alternateBounds" />
          </mxGeometry>
        </mxCell>
        <mxCell id="aB8ThcC7plSNmvLs0VB_-71" value="int" style="shape=partialRectangle;html=1;whiteSpace=wrap;connectable=0;strokeColor=inherit;overflow=hidden;fillColor=none;top=0;left=0;bottom=0;right=0;pointerEvents=1;fontSize=16;" vertex="1" parent="aB8ThcC7plSNmvLs0VB_-68">
          <mxGeometry x="170" width="80" height="60" as="geometry">
            <mxRectangle width="80" height="60" as="alternateBounds" />
          </mxGeometry>
        </mxCell>
        <mxCell id="aB8ThcC7plSNmvLs0VB_-76" value="SUB_EVENTS (races)" style="shape=table;startSize=30;container=1;collapsible=0;childLayout=tableLayout;strokeColor=#82b366;fontSize=16;fillColor=#d5e8d4;" vertex="1" parent="1">
          <mxGeometry x="330" y="-40" width="430" height="390" as="geometry" />
        </mxCell>
        <mxCell id="aB8ThcC7plSNmvLs0VB_-102" style="shape=tableRow;horizontal=0;startSize=0;swimlaneHead=0;swimlaneBody=0;strokeColor=inherit;top=0;left=0;bottom=0;right=0;collapsible=0;dropTarget=0;fillColor=none;points=[[0,0.5],[1,0.5]];portConstraint=eastwest;fontSize=16;" vertex="1" parent="aB8ThcC7plSNmvLs0VB_-76">
          <mxGeometry y="30" width="430" height="60" as="geometry" />
        </mxCell>
        <mxCell id="aB8ThcC7plSNmvLs0VB_-103" value="*" style="shape=partialRectangle;html=1;whiteSpace=wrap;connectable=0;strokeColor=#82b366;overflow=hidden;fillColor=#d5e8d4;top=0;left=0;bottom=0;right=0;pointerEvents=1;fontSize=16;" vertex="1" parent="aB8ThcC7plSNmvLs0VB_-102">
          <mxGeometry width="61" height="60" as="geometry">
            <mxRectangle width="61" height="60" as="alternateBounds" />
          </mxGeometry>
        </mxCell>
        <mxCell id="aB8ThcC7plSNmvLs0VB_-104" value="ATTRIBUTE" style="shape=partialRectangle;html=1;whiteSpace=wrap;connectable=0;strokeColor=#82b366;overflow=hidden;fillColor=#d5e8d4;top=0;left=0;bottom=0;right=0;pointerEvents=1;fontSize=16;" vertex="1" parent="aB8ThcC7plSNmvLs0VB_-102">
          <mxGeometry x="61" width="154" height="60" as="geometry">
            <mxRectangle width="154" height="60" as="alternateBounds" />
          </mxGeometry>
        </mxCell>
        <mxCell id="aB8ThcC7plSNmvLs0VB_-105" value="TYPE" style="shape=partialRectangle;html=1;whiteSpace=wrap;connectable=0;strokeColor=#82b366;overflow=hidden;fillColor=#d5e8d4;top=0;left=0;bottom=0;right=0;pointerEvents=1;fontSize=16;" vertex="1" parent="aB8ThcC7plSNmvLs0VB_-102">
          <mxGeometry x="215" width="41" height="60" as="geometry">
            <mxRectangle width="41" height="60" as="alternateBounds" />
          </mxGeometry>
        </mxCell>
        <mxCell id="aB8ThcC7plSNmvLs0VB_-106" value="INFO" style="shape=partialRectangle;html=1;whiteSpace=wrap;connectable=0;strokeColor=#82b366;overflow=hidden;fillColor=#d5e8d4;top=0;left=0;bottom=0;right=0;pointerEvents=1;fontSize=16;" vertex="1" parent="aB8ThcC7plSNmvLs0VB_-102">
          <mxGeometry x="256" width="174" height="60" as="geometry">
            <mxRectangle width="174" height="60" as="alternateBounds" />
          </mxGeometry>
        </mxCell>
        <mxCell id="aB8ThcC7plSNmvLs0VB_-77" value="" style="shape=tableRow;horizontal=0;startSize=0;swimlaneHead=0;swimlaneBody=0;strokeColor=inherit;top=0;left=0;bottom=0;right=0;collapsible=0;dropTarget=0;fillColor=none;points=[[0,0.5],[1,0.5]];portConstraint=eastwest;fontSize=16;" vertex="1" parent="aB8ThcC7plSNmvLs0VB_-76">
          <mxGeometry y="90" width="430" height="60" as="geometry" />
        </mxCell>
        <mxCell id="aB8ThcC7plSNmvLs0VB_-78" value="PK&lt;span style=&quot;white-space: pre;&quot;&gt;&#x9;&lt;/span&gt;" style="shape=partialRectangle;html=1;whiteSpace=wrap;connectable=0;strokeColor=inherit;overflow=hidden;fillColor=none;top=0;left=0;bottom=0;right=0;pointerEvents=1;fontSize=16;" vertex="1" parent="aB8ThcC7plSNmvLs0VB_-77">
          <mxGeometry width="61" height="60" as="geometry">
            <mxRectangle width="61" height="60" as="alternateBounds" />
          </mxGeometry>
        </mxCell>
        <mxCell id="aB8ThcC7plSNmvLs0VB_-79" value="sub_id" style="shape=partialRectangle;html=1;whiteSpace=wrap;connectable=0;strokeColor=inherit;overflow=hidden;fillColor=none;top=0;left=0;bottom=0;right=0;pointerEvents=1;fontSize=16;" vertex="1" parent="aB8ThcC7plSNmvLs0VB_-77">
          <mxGeometry x="61" width="154" height="60" as="geometry">
            <mxRectangle width="154" height="60" as="alternateBounds" />
          </mxGeometry>
        </mxCell>
        <mxCell id="aB8ThcC7plSNmvLs0VB_-80" value="int" style="shape=partialRectangle;html=1;whiteSpace=wrap;connectable=0;strokeColor=inherit;overflow=hidden;fillColor=none;top=0;left=0;bottom=0;right=0;pointerEvents=1;fontSize=16;" vertex="1" parent="aB8ThcC7plSNmvLs0VB_-77">
          <mxGeometry x="215" width="41" height="60" as="geometry">
            <mxRectangle width="41" height="60" as="alternateBounds" />
          </mxGeometry>
        </mxCell>
        <mxCell id="aB8ThcC7plSNmvLs0VB_-97" value="(event_id + 000 + sub event race order)" style="shape=partialRectangle;html=1;whiteSpace=wrap;connectable=0;strokeColor=inherit;overflow=hidden;fillColor=none;top=0;left=0;bottom=0;right=0;pointerEvents=1;fontSize=16;" vertex="1" parent="aB8ThcC7plSNmvLs0VB_-77">
          <mxGeometry x="256" width="174" height="60" as="geometry">
            <mxRectangle width="174" height="60" as="alternateBounds" />
          </mxGeometry>
        </mxCell>
        <mxCell id="aB8ThcC7plSNmvLs0VB_-81" value="" style="shape=tableRow;horizontal=0;startSize=0;swimlaneHead=0;swimlaneBody=0;strokeColor=inherit;top=0;left=0;bottom=0;right=0;collapsible=0;dropTarget=0;fillColor=none;points=[[0,0.5],[1,0.5]];portConstraint=eastwest;fontSize=16;" vertex="1" parent="aB8ThcC7plSNmvLs0VB_-76">
          <mxGeometry y="150" width="430" height="60" as="geometry" />
        </mxCell>
        <mxCell id="aB8ThcC7plSNmvLs0VB_-82" value="FK" style="shape=partialRectangle;html=1;whiteSpace=wrap;connectable=0;strokeColor=inherit;overflow=hidden;fillColor=none;top=0;left=0;bottom=0;right=0;pointerEvents=1;fontSize=16;" vertex="1" parent="aB8ThcC7plSNmvLs0VB_-81">
          <mxGeometry width="61" height="60" as="geometry">
            <mxRectangle width="61" height="60" as="alternateBounds" />
          </mxGeometry>
        </mxCell>
        <mxCell id="aB8ThcC7plSNmvLs0VB_-83" value="event_id" style="shape=partialRectangle;html=1;whiteSpace=wrap;connectable=0;strokeColor=inherit;overflow=hidden;fillColor=none;top=0;left=0;bottom=0;right=0;pointerEvents=1;fontSize=16;align=center;" vertex="1" parent="aB8ThcC7plSNmvLs0VB_-81">
          <mxGeometry x="61" width="154" height="60" as="geometry">
            <mxRectangle width="154" height="60" as="alternateBounds" />
          </mxGeometry>
        </mxCell>
        <mxCell id="aB8ThcC7plSNmvLs0VB_-84" value="int&lt;div&gt;NN&lt;/div&gt;" style="shape=partialRectangle;html=1;whiteSpace=wrap;connectable=0;strokeColor=inherit;overflow=hidden;fillColor=none;top=0;left=0;bottom=0;right=0;pointerEvents=1;fontSize=16;" vertex="1" parent="aB8ThcC7plSNmvLs0VB_-81">
          <mxGeometry x="215" width="41" height="60" as="geometry">
            <mxRectangle width="41" height="60" as="alternateBounds" />
          </mxGeometry>
        </mxCell>
        <mxCell id="aB8ThcC7plSNmvLs0VB_-98" value="PK from EVENT" style="shape=partialRectangle;html=1;whiteSpace=wrap;connectable=0;strokeColor=inherit;overflow=hidden;fillColor=none;top=0;left=0;bottom=0;right=0;pointerEvents=1;fontSize=16;" vertex="1" parent="aB8ThcC7plSNmvLs0VB_-81">
          <mxGeometry x="256" width="174" height="60" as="geometry">
            <mxRectangle width="174" height="60" as="alternateBounds" />
          </mxGeometry>
        </mxCell>
        <mxCell id="aB8ThcC7plSNmvLs0VB_-85" value="" style="shape=tableRow;horizontal=0;startSize=0;swimlaneHead=0;swimlaneBody=0;strokeColor=inherit;top=0;left=0;bottom=0;right=0;collapsible=0;dropTarget=0;fillColor=none;points=[[0,0.5],[1,0.5]];portConstraint=eastwest;fontSize=16;" vertex="1" parent="aB8ThcC7plSNmvLs0VB_-76">
          <mxGeometry y="210" width="430" height="60" as="geometry" />
        </mxCell>
        <mxCell id="aB8ThcC7plSNmvLs0VB_-86" value="" style="shape=partialRectangle;html=1;whiteSpace=wrap;connectable=0;strokeColor=inherit;overflow=hidden;fillColor=none;top=0;left=0;bottom=0;right=0;pointerEvents=1;fontSize=16;" vertex="1" parent="aB8ThcC7plSNmvLs0VB_-85">
          <mxGeometry width="61" height="60" as="geometry">
            <mxRectangle width="61" height="60" as="alternateBounds" />
          </mxGeometry>
        </mxCell>
        <mxCell id="aB8ThcC7plSNmvLs0VB_-87" value="num_of_participants" style="shape=partialRectangle;html=1;whiteSpace=wrap;connectable=0;strokeColor=inherit;overflow=hidden;fillColor=none;top=0;left=0;bottom=0;right=0;pointerEvents=1;fontSize=16;" vertex="1" parent="aB8ThcC7plSNmvLs0VB_-85">
          <mxGeometry x="61" width="154" height="60" as="geometry">
            <mxRectangle width="154" height="60" as="alternateBounds" />
          </mxGeometry>
        </mxCell>
        <mxCell id="aB8ThcC7plSNmvLs0VB_-88" value="int&lt;div&gt;NN&lt;/div&gt;" style="shape=partialRectangle;html=1;whiteSpace=wrap;connectable=0;strokeColor=inherit;overflow=hidden;fillColor=none;top=0;left=0;bottom=0;right=0;pointerEvents=1;fontSize=16;" vertex="1" parent="aB8ThcC7plSNmvLs0VB_-85">
          <mxGeometry x="215" width="41" height="60" as="geometry">
            <mxRectangle width="41" height="60" as="alternateBounds" />
          </mxGeometry>
        </mxCell>
        <mxCell id="aB8ThcC7plSNmvLs0VB_-99" value="# of horses, RC cars, people IN the race" style="shape=partialRectangle;html=1;whiteSpace=wrap;connectable=0;strokeColor=inherit;overflow=hidden;fillColor=none;top=0;left=0;bottom=0;right=0;pointerEvents=1;fontSize=16;" vertex="1" parent="aB8ThcC7plSNmvLs0VB_-85">
          <mxGeometry x="256" width="174" height="60" as="geometry">
            <mxRectangle width="174" height="60" as="alternateBounds" />
          </mxGeometry>
        </mxCell>
        <mxCell id="aB8ThcC7plSNmvLs0VB_-89" style="shape=tableRow;horizontal=0;startSize=0;swimlaneHead=0;swimlaneBody=0;strokeColor=inherit;top=0;left=0;bottom=0;right=0;collapsible=0;dropTarget=0;fillColor=none;points=[[0,0.5],[1,0.5]];portConstraint=eastwest;fontSize=16;" vertex="1" parent="aB8ThcC7plSNmvLs0VB_-76">
          <mxGeometry y="270" width="430" height="60" as="geometry" />
        </mxCell>
        <mxCell id="aB8ThcC7plSNmvLs0VB_-90" value="FK" style="shape=partialRectangle;html=1;whiteSpace=wrap;connectable=0;strokeColor=inherit;overflow=hidden;fillColor=none;top=0;left=0;bottom=0;right=0;pointerEvents=1;fontSize=16;" vertex="1" parent="aB8ThcC7plSNmvLs0VB_-89">
          <mxGeometry width="61" height="60" as="geometry">
            <mxRectangle width="61" height="60" as="alternateBounds" />
          </mxGeometry>
        </mxCell>
        <mxCell id="aB8ThcC7plSNmvLs0VB_-91" value="winner_id" style="shape=partialRectangle;html=1;whiteSpace=wrap;connectable=0;strokeColor=inherit;overflow=hidden;fillColor=none;top=0;left=0;bottom=0;right=0;pointerEvents=1;fontSize=16;align=center;" vertex="1" parent="aB8ThcC7plSNmvLs0VB_-89">
          <mxGeometry x="61" width="154" height="60" as="geometry">
            <mxRectangle width="154" height="60" as="alternateBounds" />
          </mxGeometry>
        </mxCell>
        <mxCell id="aB8ThcC7plSNmvLs0VB_-92" value="int" style="shape=partialRectangle;html=1;whiteSpace=wrap;connectable=0;strokeColor=inherit;overflow=hidden;fillColor=none;top=0;left=0;bottom=0;right=0;pointerEvents=1;fontSize=16;" vertex="1" parent="aB8ThcC7plSNmvLs0VB_-89">
          <mxGeometry x="215" width="41" height="60" as="geometry">
            <mxRectangle width="41" height="60" as="alternateBounds" />
          </mxGeometry>
        </mxCell>
        <mxCell id="aB8ThcC7plSNmvLs0VB_-100" value="(par_id) from PARTICIPANT" style="shape=partialRectangle;html=1;whiteSpace=wrap;connectable=0;strokeColor=inherit;overflow=hidden;fillColor=none;top=0;left=0;bottom=0;right=0;pointerEvents=1;fontSize=16;" vertex="1" parent="aB8ThcC7plSNmvLs0VB_-89">
          <mxGeometry x="256" width="174" height="60" as="geometry">
            <mxRectangle width="174" height="60" as="alternateBounds" />
          </mxGeometry>
        </mxCell>
        <mxCell id="aB8ThcC7plSNmvLs0VB_-93" style="shape=tableRow;horizontal=0;startSize=0;swimlaneHead=0;swimlaneBody=0;strokeColor=inherit;top=0;left=0;bottom=0;right=0;collapsible=0;dropTarget=0;fillColor=none;points=[[0,0.5],[1,0.5]];portConstraint=eastwest;fontSize=16;" vertex="1" parent="aB8ThcC7plSNmvLs0VB_-76">
          <mxGeometry y="330" width="430" height="60" as="geometry" />
        </mxCell>
        <mxCell id="aB8ThcC7plSNmvLs0VB_-94" style="shape=partialRectangle;html=1;whiteSpace=wrap;connectable=0;strokeColor=inherit;overflow=hidden;fillColor=none;top=0;left=0;bottom=0;right=0;pointerEvents=1;fontSize=16;" vertex="1" parent="aB8ThcC7plSNmvLs0VB_-93">
          <mxGeometry width="61" height="60" as="geometry">
            <mxRectangle width="61" height="60" as="alternateBounds" />
          </mxGeometry>
        </mxCell>
        <mxCell id="aB8ThcC7plSNmvLs0VB_-95" value="sub_date" style="shape=partialRectangle;html=1;whiteSpace=wrap;connectable=0;strokeColor=inherit;overflow=hidden;fillColor=none;top=0;left=0;bottom=0;right=0;pointerEvents=1;fontSize=16;align=center;" vertex="1" parent="aB8ThcC7plSNmvLs0VB_-93">
          <mxGeometry x="61" width="154" height="60" as="geometry">
            <mxRectangle width="154" height="60" as="alternateBounds" />
          </mxGeometry>
        </mxCell>
        <mxCell id="aB8ThcC7plSNmvLs0VB_-96" value="TXT" style="shape=partialRectangle;html=1;whiteSpace=wrap;connectable=0;strokeColor=inherit;overflow=hidden;fillColor=none;top=0;left=0;bottom=0;right=0;pointerEvents=1;fontSize=16;" vertex="1" parent="aB8ThcC7plSNmvLs0VB_-93">
          <mxGeometry x="215" width="41" height="60" as="geometry">
            <mxRectangle width="41" height="60" as="alternateBounds" />
          </mxGeometry>
        </mxCell>
        <mxCell id="aB8ThcC7plSNmvLs0VB_-101" value="date race takes place" style="shape=partialRectangle;html=1;whiteSpace=wrap;connectable=0;strokeColor=inherit;overflow=hidden;fillColor=none;top=0;left=0;bottom=0;right=0;pointerEvents=1;fontSize=16;" vertex="1" parent="aB8ThcC7plSNmvLs0VB_-93">
          <mxGeometry x="256" width="174" height="60" as="geometry">
            <mxRectangle width="174" height="60" as="alternateBounds" />
          </mxGeometry>
        </mxCell>
        <mxCell id="aB8ThcC7plSNmvLs0VB_-107" value="PARTICIPANT (horses)" style="shape=table;startSize=30;container=1;collapsible=0;childLayout=tableLayout;strokeColor=#9673a6;fontSize=16;fillColor=#e1d5e7;" vertex="1" parent="1">
          <mxGeometry x="1110" y="590" width="420" height="330" as="geometry" />
        </mxCell>
        <mxCell id="aB8ThcC7plSNmvLs0VB_-108" style="shape=tableRow;horizontal=0;startSize=0;swimlaneHead=0;swimlaneBody=0;strokeColor=inherit;top=0;left=0;bottom=0;right=0;collapsible=0;dropTarget=0;fillColor=none;points=[[0,0.5],[1,0.5]];portConstraint=eastwest;fontSize=16;" vertex="1" parent="aB8ThcC7plSNmvLs0VB_-107">
          <mxGeometry y="30" width="420" height="60" as="geometry" />
        </mxCell>
        <mxCell id="aB8ThcC7plSNmvLs0VB_-109" value="*" style="shape=partialRectangle;html=1;whiteSpace=wrap;connectable=0;strokeColor=#9673a6;overflow=hidden;fillColor=#e1d5e7;top=0;left=0;bottom=0;right=0;pointerEvents=1;fontSize=16;" vertex="1" parent="aB8ThcC7plSNmvLs0VB_-108">
          <mxGeometry width="60" height="60" as="geometry">
            <mxRectangle width="60" height="60" as="alternateBounds" />
          </mxGeometry>
        </mxCell>
        <mxCell id="aB8ThcC7plSNmvLs0VB_-110" value="ATTRIBUTE" style="shape=partialRectangle;html=1;whiteSpace=wrap;connectable=0;strokeColor=#9673a6;overflow=hidden;fillColor=#e1d5e7;top=0;left=0;bottom=0;right=0;pointerEvents=1;fontSize=16;" vertex="1" parent="aB8ThcC7plSNmvLs0VB_-108">
          <mxGeometry x="60" width="150" height="60" as="geometry">
            <mxRectangle width="150" height="60" as="alternateBounds" />
          </mxGeometry>
        </mxCell>
        <mxCell id="aB8ThcC7plSNmvLs0VB_-111" value="TYPE" style="shape=partialRectangle;html=1;whiteSpace=wrap;connectable=0;strokeColor=#9673a6;overflow=hidden;fillColor=#e1d5e7;top=0;left=0;bottom=0;right=0;pointerEvents=1;fontSize=16;" vertex="1" parent="aB8ThcC7plSNmvLs0VB_-108">
          <mxGeometry x="210" width="70" height="60" as="geometry">
            <mxRectangle width="70" height="60" as="alternateBounds" />
          </mxGeometry>
        </mxCell>
        <mxCell id="aB8ThcC7plSNmvLs0VB_-112" value="INFO" style="shape=partialRectangle;html=1;whiteSpace=wrap;connectable=0;strokeColor=#9673a6;overflow=hidden;fillColor=#e1d5e7;top=0;left=0;bottom=0;right=0;pointerEvents=1;fontSize=16;" vertex="1" parent="aB8ThcC7plSNmvLs0VB_-108">
          <mxGeometry x="280" width="140" height="60" as="geometry">
            <mxRectangle width="140" height="60" as="alternateBounds" />
          </mxGeometry>
        </mxCell>
        <mxCell id="aB8ThcC7plSNmvLs0VB_-113" value="" style="shape=tableRow;horizontal=0;startSize=0;swimlaneHead=0;swimlaneBody=0;strokeColor=inherit;top=0;left=0;bottom=0;right=0;collapsible=0;dropTarget=0;fillColor=none;points=[[0,0.5],[1,0.5]];portConstraint=eastwest;fontSize=16;" vertex="1" parent="aB8ThcC7plSNmvLs0VB_-107">
          <mxGeometry y="90" width="420" height="60" as="geometry" />
        </mxCell>
        <mxCell id="aB8ThcC7plSNmvLs0VB_-114" value="PK&lt;span style=&quot;white-space: pre;&quot;&gt;&#x9;&lt;/span&gt;" style="shape=partialRectangle;html=1;whiteSpace=wrap;connectable=0;strokeColor=inherit;overflow=hidden;fillColor=none;top=0;left=0;bottom=0;right=0;pointerEvents=1;fontSize=16;" vertex="1" parent="aB8ThcC7plSNmvLs0VB_-113">
          <mxGeometry width="60" height="60" as="geometry">
            <mxRectangle width="60" height="60" as="alternateBounds" />
          </mxGeometry>
        </mxCell>
        <mxCell id="aB8ThcC7plSNmvLs0VB_-115" value="par_id" style="shape=partialRectangle;html=1;whiteSpace=wrap;connectable=0;strokeColor=inherit;overflow=hidden;fillColor=none;top=0;left=0;bottom=0;right=0;pointerEvents=1;fontSize=16;" vertex="1" parent="aB8ThcC7plSNmvLs0VB_-113">
          <mxGeometry x="60" width="150" height="60" as="geometry">
            <mxRectangle width="150" height="60" as="alternateBounds" />
          </mxGeometry>
        </mxCell>
        <mxCell id="aB8ThcC7plSNmvLs0VB_-116" value="int (auto)" style="shape=partialRectangle;html=1;whiteSpace=wrap;connectable=0;strokeColor=inherit;overflow=hidden;fillColor=none;top=0;left=0;bottom=0;right=0;pointerEvents=1;fontSize=16;" vertex="1" parent="aB8ThcC7plSNmvLs0VB_-113">
          <mxGeometry x="210" width="70" height="60" as="geometry">
            <mxRectangle width="70" height="60" as="alternateBounds" />
          </mxGeometry>
        </mxCell>
        <mxCell id="aB8ThcC7plSNmvLs0VB_-117" value="id for par. registration" style="shape=partialRectangle;html=1;whiteSpace=wrap;connectable=0;strokeColor=inherit;overflow=hidden;fillColor=none;top=0;left=0;bottom=0;right=0;pointerEvents=1;fontSize=16;" vertex="1" parent="aB8ThcC7plSNmvLs0VB_-113">
          <mxGeometry x="280" width="140" height="60" as="geometry">
            <mxRectangle width="140" height="60" as="alternateBounds" />
          </mxGeometry>
        </mxCell>
        <mxCell id="aB8ThcC7plSNmvLs0VB_-118" value="" style="shape=tableRow;horizontal=0;startSize=0;swimlaneHead=0;swimlaneBody=0;strokeColor=inherit;top=0;left=0;bottom=0;right=0;collapsible=0;dropTarget=0;fillColor=none;points=[[0,0.5],[1,0.5]];portConstraint=eastwest;fontSize=16;" vertex="1" parent="aB8ThcC7plSNmvLs0VB_-107">
          <mxGeometry y="150" width="420" height="60" as="geometry" />
        </mxCell>
        <mxCell id="aB8ThcC7plSNmvLs0VB_-119" value="" style="shape=partialRectangle;html=1;whiteSpace=wrap;connectable=0;strokeColor=inherit;overflow=hidden;fillColor=none;top=0;left=0;bottom=0;right=0;pointerEvents=1;fontSize=16;" vertex="1" parent="aB8ThcC7plSNmvLs0VB_-118">
          <mxGeometry width="60" height="60" as="geometry">
            <mxRectangle width="60" height="60" as="alternateBounds" />
          </mxGeometry>
        </mxCell>
        <mxCell id="aB8ThcC7plSNmvLs0VB_-120" value="par_name" style="shape=partialRectangle;html=1;whiteSpace=wrap;connectable=0;strokeColor=inherit;overflow=hidden;fillColor=none;top=0;left=0;bottom=0;right=0;pointerEvents=1;fontSize=16;align=center;" vertex="1" parent="aB8ThcC7plSNmvLs0VB_-118">
          <mxGeometry x="60" width="150" height="60" as="geometry">
            <mxRectangle width="150" height="60" as="alternateBounds" />
          </mxGeometry>
        </mxCell>
        <mxCell id="aB8ThcC7plSNmvLs0VB_-121" value="txt&lt;div&gt;NN&lt;/div&gt;" style="shape=partialRectangle;html=1;whiteSpace=wrap;connectable=0;strokeColor=inherit;overflow=hidden;fillColor=none;top=0;left=0;bottom=0;right=0;pointerEvents=1;fontSize=16;" vertex="1" parent="aB8ThcC7plSNmvLs0VB_-118">
          <mxGeometry x="210" width="70" height="60" as="geometry">
            <mxRectangle width="70" height="60" as="alternateBounds" />
          </mxGeometry>
        </mxCell>
        <mxCell id="aB8ThcC7plSNmvLs0VB_-122" value="" style="shape=partialRectangle;html=1;whiteSpace=wrap;connectable=0;strokeColor=inherit;overflow=hidden;fillColor=none;top=0;left=0;bottom=0;right=0;pointerEvents=1;fontSize=16;" vertex="1" parent="aB8ThcC7plSNmvLs0VB_-118">
          <mxGeometry x="280" width="140" height="60" as="geometry">
            <mxRectangle width="140" height="60" as="alternateBounds" />
          </mxGeometry>
        </mxCell>
        <mxCell id="aB8ThcC7plSNmvLs0VB_-123" value="" style="shape=tableRow;horizontal=0;startSize=0;swimlaneHead=0;swimlaneBody=0;strokeColor=inherit;top=0;left=0;bottom=0;right=0;collapsible=0;dropTarget=0;fillColor=none;points=[[0,0.5],[1,0.5]];portConstraint=eastwest;fontSize=16;" vertex="1" parent="aB8ThcC7plSNmvLs0VB_-107">
          <mxGeometry y="210" width="420" height="60" as="geometry" />
        </mxCell>
        <mxCell id="aB8ThcC7plSNmvLs0VB_-124" value="" style="shape=partialRectangle;html=1;whiteSpace=wrap;connectable=0;strokeColor=inherit;overflow=hidden;fillColor=none;top=0;left=0;bottom=0;right=0;pointerEvents=1;fontSize=16;" vertex="1" parent="aB8ThcC7plSNmvLs0VB_-123">
          <mxGeometry width="60" height="60" as="geometry">
            <mxRectangle width="60" height="60" as="alternateBounds" />
          </mxGeometry>
        </mxCell>
        <mxCell id="aB8ThcC7plSNmvLs0VB_-125" value="registerer" style="shape=partialRectangle;html=1;whiteSpace=wrap;connectable=0;strokeColor=inherit;overflow=hidden;fillColor=none;top=0;left=0;bottom=0;right=0;pointerEvents=1;fontSize=16;" vertex="1" parent="aB8ThcC7plSNmvLs0VB_-123">
          <mxGeometry x="60" width="150" height="60" as="geometry">
            <mxRectangle width="150" height="60" as="alternateBounds" />
          </mxGeometry>
        </mxCell>
        <mxCell id="aB8ThcC7plSNmvLs0VB_-126" value="txt&lt;div&gt;nn&lt;/div&gt;" style="shape=partialRectangle;html=1;whiteSpace=wrap;connectable=0;strokeColor=inherit;overflow=hidden;fillColor=none;top=0;left=0;bottom=0;right=0;pointerEvents=1;fontSize=16;" vertex="1" parent="aB8ThcC7plSNmvLs0VB_-123">
          <mxGeometry x="210" width="70" height="60" as="geometry">
            <mxRectangle width="70" height="60" as="alternateBounds" />
          </mxGeometry>
        </mxCell>
        <mxCell id="aB8ThcC7plSNmvLs0VB_-127" value="name of person registering participant" style="shape=partialRectangle;html=1;whiteSpace=wrap;connectable=0;strokeColor=inherit;overflow=hidden;fillColor=none;top=0;left=0;bottom=0;right=0;pointerEvents=1;fontSize=16;" vertex="1" parent="aB8ThcC7plSNmvLs0VB_-123">
          <mxGeometry x="280" width="140" height="60" as="geometry">
            <mxRectangle width="140" height="60" as="alternateBounds" />
          </mxGeometry>
        </mxCell>
        <mxCell id="aB8ThcC7plSNmvLs0VB_-128" style="shape=tableRow;horizontal=0;startSize=0;swimlaneHead=0;swimlaneBody=0;strokeColor=inherit;top=0;left=0;bottom=0;right=0;collapsible=0;dropTarget=0;fillColor=none;points=[[0,0.5],[1,0.5]];portConstraint=eastwest;fontSize=16;" vertex="1" parent="aB8ThcC7plSNmvLs0VB_-107">
          <mxGeometry y="270" width="420" height="60" as="geometry" />
        </mxCell>
        <mxCell id="aB8ThcC7plSNmvLs0VB_-129" style="shape=partialRectangle;html=1;whiteSpace=wrap;connectable=0;strokeColor=inherit;overflow=hidden;fillColor=none;top=0;left=0;bottom=0;right=0;pointerEvents=1;fontSize=16;" vertex="1" parent="aB8ThcC7plSNmvLs0VB_-128">
          <mxGeometry width="60" height="60" as="geometry">
            <mxRectangle width="60" height="60" as="alternateBounds" />
          </mxGeometry>
        </mxCell>
        <mxCell id="aB8ThcC7plSNmvLs0VB_-130" value="date_registered" style="shape=partialRectangle;html=1;whiteSpace=wrap;connectable=0;strokeColor=inherit;overflow=hidden;fillColor=none;top=0;left=0;bottom=0;right=0;pointerEvents=1;fontSize=16;align=center;" vertex="1" parent="aB8ThcC7plSNmvLs0VB_-128">
          <mxGeometry x="60" width="150" height="60" as="geometry">
            <mxRectangle width="150" height="60" as="alternateBounds" />
          </mxGeometry>
        </mxCell>
        <mxCell id="aB8ThcC7plSNmvLs0VB_-131" value="txt&lt;div&gt;(auto)&lt;/div&gt;" style="shape=partialRectangle;html=1;whiteSpace=wrap;connectable=0;strokeColor=inherit;overflow=hidden;fillColor=none;top=0;left=0;bottom=0;right=0;pointerEvents=1;fontSize=16;" vertex="1" parent="aB8ThcC7plSNmvLs0VB_-128">
          <mxGeometry x="210" width="70" height="60" as="geometry">
            <mxRectangle width="70" height="60" as="alternateBounds" />
          </mxGeometry>
        </mxCell>
        <mxCell id="aB8ThcC7plSNmvLs0VB_-132" value="date par was registered" style="shape=partialRectangle;html=1;whiteSpace=wrap;connectable=0;strokeColor=inherit;overflow=hidden;fillColor=none;top=0;left=0;bottom=0;right=0;pointerEvents=1;fontSize=16;" vertex="1" parent="aB8ThcC7plSNmvLs0VB_-128">
          <mxGeometry x="280" width="140" height="60" as="geometry">
            <mxRectangle width="140" height="60" as="alternateBounds" />
          </mxGeometry>
        </mxCell>
        <mxCell id="aB8ThcC7plSNmvLs0VB_-138" value="SUBEVENT_PARTICIPANT (roster of each race)" style="shape=table;startSize=30;container=1;collapsible=0;childLayout=tableLayout;strokeColor=#b85450;fontSize=16;fillColor=#f8cecc;" vertex="1" parent="1">
          <mxGeometry x="930" y="-40" width="450" height="470" as="geometry" />
        </mxCell>
        <mxCell id="aB8ThcC7plSNmvLs0VB_-139" style="shape=tableRow;horizontal=0;startSize=0;swimlaneHead=0;swimlaneBody=0;strokeColor=inherit;top=0;left=0;bottom=0;right=0;collapsible=0;dropTarget=0;fillColor=none;points=[[0,0.5],[1,0.5]];portConstraint=eastwest;fontSize=16;" vertex="1" parent="aB8ThcC7plSNmvLs0VB_-138">
          <mxGeometry y="30" width="450" height="60" as="geometry" />
        </mxCell>
        <mxCell id="aB8ThcC7plSNmvLs0VB_-140" value="*" style="shape=partialRectangle;html=1;whiteSpace=wrap;connectable=0;strokeColor=#b85450;overflow=hidden;fillColor=#f8cecc;top=0;left=0;bottom=0;right=0;pointerEvents=1;fontSize=16;" vertex="1" parent="aB8ThcC7plSNmvLs0VB_-139">
          <mxGeometry width="60" height="60" as="geometry">
            <mxRectangle width="60" height="60" as="alternateBounds" />
          </mxGeometry>
        </mxCell>
        <mxCell id="aB8ThcC7plSNmvLs0VB_-141" value="ATTRIBUTE" style="shape=partialRectangle;html=1;whiteSpace=wrap;connectable=0;strokeColor=#b85450;overflow=hidden;fillColor=#f8cecc;top=0;left=0;bottom=0;right=0;pointerEvents=1;fontSize=16;" vertex="1" parent="aB8ThcC7plSNmvLs0VB_-139">
          <mxGeometry x="60" width="150" height="60" as="geometry">
            <mxRectangle width="150" height="60" as="alternateBounds" />
          </mxGeometry>
        </mxCell>
        <mxCell id="aB8ThcC7plSNmvLs0VB_-142" value="TYPE" style="shape=partialRectangle;html=1;whiteSpace=wrap;connectable=0;strokeColor=#b85450;overflow=hidden;fillColor=#f8cecc;top=0;left=0;bottom=0;right=0;pointerEvents=1;fontSize=16;" vertex="1" parent="aB8ThcC7plSNmvLs0VB_-139">
          <mxGeometry x="210" width="130" height="60" as="geometry">
            <mxRectangle width="130" height="60" as="alternateBounds" />
          </mxGeometry>
        </mxCell>
        <mxCell id="aB8ThcC7plSNmvLs0VB_-143" value="INFO" style="shape=partialRectangle;html=1;whiteSpace=wrap;connectable=0;strokeColor=#b85450;overflow=hidden;fillColor=#f8cecc;top=0;left=0;bottom=0;right=0;pointerEvents=1;fontSize=16;" vertex="1" parent="aB8ThcC7plSNmvLs0VB_-139">
          <mxGeometry x="340" width="110" height="60" as="geometry">
            <mxRectangle width="110" height="60" as="alternateBounds" />
          </mxGeometry>
        </mxCell>
        <mxCell id="aB8ThcC7plSNmvLs0VB_-144" value="" style="shape=tableRow;horizontal=0;startSize=0;swimlaneHead=0;swimlaneBody=0;strokeColor=inherit;top=0;left=0;bottom=0;right=0;collapsible=0;dropTarget=0;fillColor=none;points=[[0,0.5],[1,0.5]];portConstraint=eastwest;fontSize=16;" vertex="1" parent="aB8ThcC7plSNmvLs0VB_-138">
          <mxGeometry y="90" width="450" height="60" as="geometry" />
        </mxCell>
        <mxCell id="aB8ThcC7plSNmvLs0VB_-145" value="PK&lt;span style=&quot;white-space: pre;&quot;&gt;&#x9;&lt;/span&gt;" style="shape=partialRectangle;html=1;whiteSpace=wrap;connectable=0;strokeColor=inherit;overflow=hidden;fillColor=none;top=0;left=0;bottom=0;right=0;pointerEvents=1;fontSize=16;" vertex="1" parent="aB8ThcC7plSNmvLs0VB_-144">
          <mxGeometry width="60" height="60" as="geometry">
            <mxRectangle width="60" height="60" as="alternateBounds" />
          </mxGeometry>
        </mxCell>
        <mxCell id="aB8ThcC7plSNmvLs0VB_-146" value="sub_id" style="shape=partialRectangle;html=1;whiteSpace=wrap;connectable=0;strokeColor=inherit;overflow=hidden;fillColor=none;top=0;left=0;bottom=0;right=0;pointerEvents=1;fontSize=16;" vertex="1" parent="aB8ThcC7plSNmvLs0VB_-144">
          <mxGeometry x="60" width="150" height="60" as="geometry">
            <mxRectangle width="150" height="60" as="alternateBounds" />
          </mxGeometry>
        </mxCell>
        <mxCell id="aB8ThcC7plSNmvLs0VB_-147" value="int&lt;div&gt;NN&lt;/div&gt;" style="shape=partialRectangle;html=1;whiteSpace=wrap;connectable=0;strokeColor=inherit;overflow=hidden;fillColor=none;top=0;left=0;bottom=0;right=0;pointerEvents=1;fontSize=16;" vertex="1" parent="aB8ThcC7plSNmvLs0VB_-144">
          <mxGeometry x="210" width="130" height="60" as="geometry">
            <mxRectangle width="130" height="60" as="alternateBounds" />
          </mxGeometry>
        </mxCell>
        <mxCell id="aB8ThcC7plSNmvLs0VB_-148" value="refers to race" style="shape=partialRectangle;html=1;whiteSpace=wrap;connectable=0;strokeColor=inherit;overflow=hidden;fillColor=none;top=0;left=0;bottom=0;right=0;pointerEvents=1;fontSize=16;" vertex="1" parent="aB8ThcC7plSNmvLs0VB_-144">
          <mxGeometry x="340" width="110" height="60" as="geometry">
            <mxRectangle width="110" height="60" as="alternateBounds" />
          </mxGeometry>
        </mxCell>
        <mxCell id="aB8ThcC7plSNmvLs0VB_-149" value="" style="shape=tableRow;horizontal=0;startSize=0;swimlaneHead=0;swimlaneBody=0;strokeColor=inherit;top=0;left=0;bottom=0;right=0;collapsible=0;dropTarget=0;fillColor=none;points=[[0,0.5],[1,0.5]];portConstraint=eastwest;fontSize=16;" vertex="1" parent="aB8ThcC7plSNmvLs0VB_-138">
          <mxGeometry y="150" width="450" height="60" as="geometry" />
        </mxCell>
        <mxCell id="aB8ThcC7plSNmvLs0VB_-150" value="PK" style="shape=partialRectangle;html=1;whiteSpace=wrap;connectable=0;strokeColor=inherit;overflow=hidden;fillColor=none;top=0;left=0;bottom=0;right=0;pointerEvents=1;fontSize=16;" vertex="1" parent="aB8ThcC7plSNmvLs0VB_-149">
          <mxGeometry width="60" height="60" as="geometry">
            <mxRectangle width="60" height="60" as="alternateBounds" />
          </mxGeometry>
        </mxCell>
        <mxCell id="aB8ThcC7plSNmvLs0VB_-151" value="par_id" style="shape=partialRectangle;html=1;whiteSpace=wrap;connectable=0;strokeColor=inherit;overflow=hidden;fillColor=none;top=0;left=0;bottom=0;right=0;pointerEvents=1;fontSize=16;align=center;" vertex="1" parent="aB8ThcC7plSNmvLs0VB_-149">
          <mxGeometry x="60" width="150" height="60" as="geometry">
            <mxRectangle width="150" height="60" as="alternateBounds" />
          </mxGeometry>
        </mxCell>
        <mxCell id="aB8ThcC7plSNmvLs0VB_-152" value="int&lt;div&gt;NN&lt;/div&gt;" style="shape=partialRectangle;html=1;whiteSpace=wrap;connectable=0;strokeColor=inherit;overflow=hidden;fillColor=none;top=0;left=0;bottom=0;right=0;pointerEvents=1;fontSize=16;" vertex="1" parent="aB8ThcC7plSNmvLs0VB_-149">
          <mxGeometry x="210" width="130" height="60" as="geometry">
            <mxRectangle width="130" height="60" as="alternateBounds" />
          </mxGeometry>
        </mxCell>
        <mxCell id="aB8ThcC7plSNmvLs0VB_-153" value="refer to participant" style="shape=partialRectangle;html=1;whiteSpace=wrap;connectable=0;strokeColor=inherit;overflow=hidden;fillColor=none;top=0;left=0;bottom=0;right=0;pointerEvents=1;fontSize=16;" vertex="1" parent="aB8ThcC7plSNmvLs0VB_-149">
          <mxGeometry x="340" width="110" height="60" as="geometry">
            <mxRectangle width="110" height="60" as="alternateBounds" />
          </mxGeometry>
        </mxCell>
        <mxCell id="aB8ThcC7plSNmvLs0VB_-154" value="" style="shape=tableRow;horizontal=0;startSize=0;swimlaneHead=0;swimlaneBody=0;strokeColor=inherit;top=0;left=0;bottom=0;right=0;collapsible=0;dropTarget=0;fillColor=none;points=[[0,0.5],[1,0.5]];portConstraint=eastwest;fontSize=16;" vertex="1" parent="aB8ThcC7plSNmvLs0VB_-138">
          <mxGeometry y="210" width="450" height="140" as="geometry" />
        </mxCell>
        <mxCell id="aB8ThcC7plSNmvLs0VB_-155" value="" style="shape=partialRectangle;html=1;whiteSpace=wrap;connectable=0;strokeColor=inherit;overflow=hidden;fillColor=none;top=0;left=0;bottom=0;right=0;pointerEvents=1;fontSize=16;" vertex="1" parent="aB8ThcC7plSNmvLs0VB_-154">
          <mxGeometry width="60" height="140" as="geometry">
            <mxRectangle width="60" height="140" as="alternateBounds" />
          </mxGeometry>
        </mxCell>
        <mxCell id="aB8ThcC7plSNmvLs0VB_-156" value="race_entry_num" style="shape=partialRectangle;html=1;whiteSpace=wrap;connectable=0;strokeColor=inherit;overflow=hidden;fillColor=none;top=0;left=0;bottom=0;right=0;pointerEvents=1;fontSize=16;" vertex="1" parent="aB8ThcC7plSNmvLs0VB_-154">
          <mxGeometry x="60" width="150" height="140" as="geometry">
            <mxRectangle width="150" height="140" as="alternateBounds" />
          </mxGeometry>
        </mxCell>
        <mxCell id="aB8ThcC7plSNmvLs0VB_-157" value="int&lt;div&gt;UNIQUE&amp;nbsp;&lt;/div&gt;&lt;div&gt;per race (handled by script)&lt;/div&gt;" style="shape=partialRectangle;html=1;whiteSpace=wrap;connectable=0;strokeColor=inherit;overflow=hidden;fillColor=none;top=0;left=0;bottom=0;right=0;pointerEvents=1;fontSize=16;" vertex="1" parent="aB8ThcC7plSNmvLs0VB_-154">
          <mxGeometry x="210" width="130" height="140" as="geometry">
            <mxRectangle width="130" height="140" as="alternateBounds" />
          </mxGeometry>
        </mxCell>
        <mxCell id="aB8ThcC7plSNmvLs0VB_-158" value="arbitrary ordinal number to identify racers in each race (starts at 1)" style="shape=partialRectangle;html=1;whiteSpace=wrap;connectable=0;strokeColor=inherit;overflow=hidden;fillColor=none;top=0;left=0;bottom=0;right=0;pointerEvents=1;fontSize=16;" vertex="1" parent="aB8ThcC7plSNmvLs0VB_-154">
          <mxGeometry x="340" width="110" height="140" as="geometry">
            <mxRectangle width="110" height="140" as="alternateBounds" />
          </mxGeometry>
        </mxCell>
        <mxCell id="aB8ThcC7plSNmvLs0VB_-159" style="shape=tableRow;horizontal=0;startSize=0;swimlaneHead=0;swimlaneBody=0;strokeColor=inherit;top=0;left=0;bottom=0;right=0;collapsible=0;dropTarget=0;fillColor=none;points=[[0,0.5],[1,0.5]];portConstraint=eastwest;fontSize=16;" vertex="1" parent="aB8ThcC7plSNmvLs0VB_-138">
          <mxGeometry y="350" width="450" height="60" as="geometry" />
        </mxCell>
        <mxCell id="aB8ThcC7plSNmvLs0VB_-160" style="shape=partialRectangle;html=1;whiteSpace=wrap;connectable=0;strokeColor=inherit;overflow=hidden;fillColor=none;top=0;left=0;bottom=0;right=0;pointerEvents=1;fontSize=16;" vertex="1" parent="aB8ThcC7plSNmvLs0VB_-159">
          <mxGeometry width="60" height="60" as="geometry">
            <mxRectangle width="60" height="60" as="alternateBounds" />
          </mxGeometry>
        </mxCell>
        <mxCell id="aB8ThcC7plSNmvLs0VB_-161" value="par_status" style="shape=partialRectangle;html=1;whiteSpace=wrap;connectable=0;strokeColor=inherit;overflow=hidden;fillColor=none;top=0;left=0;bottom=0;right=0;pointerEvents=1;fontSize=16;align=center;" vertex="1" parent="aB8ThcC7plSNmvLs0VB_-159">
          <mxGeometry x="60" width="150" height="60" as="geometry">
            <mxRectangle width="150" height="60" as="alternateBounds" />
          </mxGeometry>
        </mxCell>
        <mxCell id="aB8ThcC7plSNmvLs0VB_-162" value="txt" style="shape=partialRectangle;html=1;whiteSpace=wrap;connectable=0;strokeColor=inherit;overflow=hidden;fillColor=none;top=0;left=0;bottom=0;right=0;pointerEvents=1;fontSize=16;" vertex="1" parent="aB8ThcC7plSNmvLs0VB_-159">
          <mxGeometry x="210" width="130" height="60" as="geometry">
            <mxRectangle width="130" height="60" as="alternateBounds" />
          </mxGeometry>
        </mxCell>
        <mxCell id="aB8ThcC7plSNmvLs0VB_-163" value="default :OK&lt;div&gt;{OK, SCRATCHED}&lt;/div&gt;" style="shape=partialRectangle;html=1;whiteSpace=wrap;connectable=0;strokeColor=inherit;overflow=hidden;fillColor=none;top=0;left=0;bottom=0;right=0;pointerEvents=1;fontSize=16;" vertex="1" parent="aB8ThcC7plSNmvLs0VB_-159">
          <mxGeometry x="340" width="110" height="60" as="geometry">
            <mxRectangle width="110" height="60" as="alternateBounds" />
          </mxGeometry>
        </mxCell>
        <mxCell id="aB8ThcC7plSNmvLs0VB_-164" style="shape=tableRow;horizontal=0;startSize=0;swimlaneHead=0;swimlaneBody=0;strokeColor=inherit;top=0;left=0;bottom=0;right=0;collapsible=0;dropTarget=0;fillColor=none;points=[[0,0.5],[1,0.5]];portConstraint=eastwest;fontSize=16;" vertex="1" parent="aB8ThcC7plSNmvLs0VB_-138">
          <mxGeometry y="410" width="450" height="60" as="geometry" />
        </mxCell>
        <mxCell id="aB8ThcC7plSNmvLs0VB_-165" style="shape=partialRectangle;html=1;whiteSpace=wrap;connectable=0;strokeColor=inherit;overflow=hidden;fillColor=none;top=0;left=0;bottom=0;right=0;pointerEvents=1;fontSize=16;" vertex="1" parent="aB8ThcC7plSNmvLs0VB_-164">
          <mxGeometry width="60" height="60" as="geometry">
            <mxRectangle width="60" height="60" as="alternateBounds" />
          </mxGeometry>
        </mxCell>
        <mxCell id="aB8ThcC7plSNmvLs0VB_-166" value="" style="shape=partialRectangle;html=1;whiteSpace=wrap;connectable=0;strokeColor=inherit;overflow=hidden;fillColor=none;top=0;left=0;bottom=0;right=0;pointerEvents=1;fontSize=16;align=center;" vertex="1" parent="aB8ThcC7plSNmvLs0VB_-164">
          <mxGeometry x="60" width="150" height="60" as="geometry">
            <mxRectangle width="150" height="60" as="alternateBounds" />
          </mxGeometry>
        </mxCell>
        <mxCell id="aB8ThcC7plSNmvLs0VB_-167" value="" style="shape=partialRectangle;html=1;whiteSpace=wrap;connectable=0;strokeColor=inherit;overflow=hidden;fillColor=none;top=0;left=0;bottom=0;right=0;pointerEvents=1;fontSize=16;" vertex="1" parent="aB8ThcC7plSNmvLs0VB_-164">
          <mxGeometry x="210" width="130" height="60" as="geometry">
            <mxRectangle width="130" height="60" as="alternateBounds" />
          </mxGeometry>
        </mxCell>
        <mxCell id="aB8ThcC7plSNmvLs0VB_-168" value="" style="shape=partialRectangle;html=1;whiteSpace=wrap;connectable=0;strokeColor=inherit;overflow=hidden;fillColor=none;top=0;left=0;bottom=0;right=0;pointerEvents=1;fontSize=16;" vertex="1" parent="aB8ThcC7plSNmvLs0VB_-164">
          <mxGeometry x="340" width="110" height="60" as="geometry">
            <mxRectangle width="110" height="60" as="alternateBounds" />
          </mxGeometry>
        </mxCell>
        <mxCell id="aB8ThcC7plSNmvLs0VB_-169" value="TICKET" style="shape=table;startSize=30;container=1;collapsible=0;childLayout=tableLayout;strokeColor=#d79b00;fontSize=16;fillColor=#ffe6cc;" vertex="1" parent="1">
          <mxGeometry x="360" y="520" width="450" height="440" as="geometry" />
        </mxCell>
        <mxCell id="aB8ThcC7plSNmvLs0VB_-170" style="shape=tableRow;horizontal=0;startSize=0;swimlaneHead=0;swimlaneBody=0;strokeColor=inherit;top=0;left=0;bottom=0;right=0;collapsible=0;dropTarget=0;fillColor=none;points=[[0,0.5],[1,0.5]];portConstraint=eastwest;fontSize=16;" vertex="1" parent="aB8ThcC7plSNmvLs0VB_-169">
          <mxGeometry y="30" width="450" height="60" as="geometry" />
        </mxCell>
        <mxCell id="aB8ThcC7plSNmvLs0VB_-171" value="*" style="shape=partialRectangle;html=1;whiteSpace=wrap;connectable=0;strokeColor=#d79b00;overflow=hidden;fillColor=#ffe6cc;top=0;left=0;bottom=0;right=0;pointerEvents=1;fontSize=16;" vertex="1" parent="aB8ThcC7plSNmvLs0VB_-170">
          <mxGeometry width="60" height="60" as="geometry">
            <mxRectangle width="60" height="60" as="alternateBounds" />
          </mxGeometry>
        </mxCell>
        <mxCell id="aB8ThcC7plSNmvLs0VB_-172" value="ATTRIBUTE" style="shape=partialRectangle;html=1;whiteSpace=wrap;connectable=0;strokeColor=#d79b00;overflow=hidden;fillColor=#ffe6cc;top=0;left=0;bottom=0;right=0;pointerEvents=1;fontSize=16;" vertex="1" parent="aB8ThcC7plSNmvLs0VB_-170">
          <mxGeometry x="60" width="150" height="60" as="geometry">
            <mxRectangle width="150" height="60" as="alternateBounds" />
          </mxGeometry>
        </mxCell>
        <mxCell id="aB8ThcC7plSNmvLs0VB_-173" value="TYPE" style="shape=partialRectangle;html=1;whiteSpace=wrap;connectable=0;strokeColor=#d79b00;overflow=hidden;fillColor=#ffe6cc;top=0;left=0;bottom=0;right=0;pointerEvents=1;fontSize=16;" vertex="1" parent="aB8ThcC7plSNmvLs0VB_-170">
          <mxGeometry x="210" width="130" height="60" as="geometry">
            <mxRectangle width="130" height="60" as="alternateBounds" />
          </mxGeometry>
        </mxCell>
        <mxCell id="aB8ThcC7plSNmvLs0VB_-174" value="INFO" style="shape=partialRectangle;html=1;whiteSpace=wrap;connectable=0;strokeColor=#d79b00;overflow=hidden;fillColor=#ffe6cc;top=0;left=0;bottom=0;right=0;pointerEvents=1;fontSize=16;" vertex="1" parent="aB8ThcC7plSNmvLs0VB_-170">
          <mxGeometry x="340" width="110" height="60" as="geometry">
            <mxRectangle width="110" height="60" as="alternateBounds" />
          </mxGeometry>
        </mxCell>
        <mxCell id="aB8ThcC7plSNmvLs0VB_-175" value="" style="shape=tableRow;horizontal=0;startSize=0;swimlaneHead=0;swimlaneBody=0;strokeColor=inherit;top=0;left=0;bottom=0;right=0;collapsible=0;dropTarget=0;fillColor=none;points=[[0,0.5],[1,0.5]];portConstraint=eastwest;fontSize=16;" vertex="1" parent="aB8ThcC7plSNmvLs0VB_-169">
          <mxGeometry y="90" width="450" height="60" as="geometry" />
        </mxCell>
        <mxCell id="aB8ThcC7plSNmvLs0VB_-176" value="PK&lt;span style=&quot;white-space: pre;&quot;&gt;&#x9;&lt;/span&gt;" style="shape=partialRectangle;html=1;whiteSpace=wrap;connectable=0;strokeColor=inherit;overflow=hidden;fillColor=none;top=0;left=0;bottom=0;right=0;pointerEvents=1;fontSize=16;" vertex="1" parent="aB8ThcC7plSNmvLs0VB_-175">
          <mxGeometry width="60" height="60" as="geometry">
            <mxRectangle width="60" height="60" as="alternateBounds" />
          </mxGeometry>
        </mxCell>
        <mxCell id="aB8ThcC7plSNmvLs0VB_-177" value="ticket_id" style="shape=partialRectangle;html=1;whiteSpace=wrap;connectable=0;strokeColor=inherit;overflow=hidden;fillColor=none;top=0;left=0;bottom=0;right=0;pointerEvents=1;fontSize=16;" vertex="1" parent="aB8ThcC7plSNmvLs0VB_-175">
          <mxGeometry x="60" width="150" height="60" as="geometry">
            <mxRectangle width="150" height="60" as="alternateBounds" />
          </mxGeometry>
        </mxCell>
        <mxCell id="aB8ThcC7plSNmvLs0VB_-178" value="int (auto)" style="shape=partialRectangle;html=1;whiteSpace=wrap;connectable=0;strokeColor=inherit;overflow=hidden;fillColor=none;top=0;left=0;bottom=0;right=0;pointerEvents=1;fontSize=16;" vertex="1" parent="aB8ThcC7plSNmvLs0VB_-175">
          <mxGeometry x="210" width="130" height="60" as="geometry">
            <mxRectangle width="130" height="60" as="alternateBounds" />
          </mxGeometry>
        </mxCell>
        <mxCell id="aB8ThcC7plSNmvLs0VB_-179" value="" style="shape=partialRectangle;html=1;whiteSpace=wrap;connectable=0;strokeColor=inherit;overflow=hidden;fillColor=none;top=0;left=0;bottom=0;right=0;pointerEvents=1;fontSize=16;" vertex="1" parent="aB8ThcC7plSNmvLs0VB_-175">
          <mxGeometry x="340" width="110" height="60" as="geometry">
            <mxRectangle width="110" height="60" as="alternateBounds" />
          </mxGeometry>
        </mxCell>
        <mxCell id="aB8ThcC7plSNmvLs0VB_-180" value="" style="shape=tableRow;horizontal=0;startSize=0;swimlaneHead=0;swimlaneBody=0;strokeColor=inherit;top=0;left=0;bottom=0;right=0;collapsible=0;dropTarget=0;fillColor=none;points=[[0,0.5],[1,0.5]];portConstraint=eastwest;fontSize=16;" vertex="1" parent="aB8ThcC7plSNmvLs0VB_-169">
          <mxGeometry y="150" width="450" height="60" as="geometry" />
        </mxCell>
        <mxCell id="aB8ThcC7plSNmvLs0VB_-181" value="FK" style="shape=partialRectangle;html=1;whiteSpace=wrap;connectable=0;strokeColor=inherit;overflow=hidden;fillColor=none;top=0;left=0;bottom=0;right=0;pointerEvents=1;fontSize=16;" vertex="1" parent="aB8ThcC7plSNmvLs0VB_-180">
          <mxGeometry width="60" height="60" as="geometry">
            <mxRectangle width="60" height="60" as="alternateBounds" />
          </mxGeometry>
        </mxCell>
        <mxCell id="aB8ThcC7plSNmvLs0VB_-182" value="sub_id" style="shape=partialRectangle;html=1;whiteSpace=wrap;connectable=0;strokeColor=inherit;overflow=hidden;fillColor=none;top=0;left=0;bottom=0;right=0;pointerEvents=1;fontSize=16;align=center;" vertex="1" parent="aB8ThcC7plSNmvLs0VB_-180">
          <mxGeometry x="60" width="150" height="60" as="geometry">
            <mxRectangle width="150" height="60" as="alternateBounds" />
          </mxGeometry>
        </mxCell>
        <mxCell id="aB8ThcC7plSNmvLs0VB_-183" value="int" style="shape=partialRectangle;html=1;whiteSpace=wrap;connectable=0;strokeColor=inherit;overflow=hidden;fillColor=none;top=0;left=0;bottom=0;right=0;pointerEvents=1;fontSize=16;" vertex="1" parent="aB8ThcC7plSNmvLs0VB_-180">
          <mxGeometry x="210" width="130" height="60" as="geometry">
            <mxRectangle width="130" height="60" as="alternateBounds" />
          </mxGeometry>
        </mxCell>
        <mxCell id="aB8ThcC7plSNmvLs0VB_-184" value="id of race ticket was bought for" style="shape=partialRectangle;html=1;whiteSpace=wrap;connectable=0;strokeColor=inherit;overflow=hidden;fillColor=none;top=0;left=0;bottom=0;right=0;pointerEvents=1;fontSize=16;" vertex="1" parent="aB8ThcC7plSNmvLs0VB_-180">
          <mxGeometry x="340" width="110" height="60" as="geometry">
            <mxRectangle width="110" height="60" as="alternateBounds" />
          </mxGeometry>
        </mxCell>
        <mxCell id="aB8ThcC7plSNmvLs0VB_-185" value="" style="shape=tableRow;horizontal=0;startSize=0;swimlaneHead=0;swimlaneBody=0;strokeColor=inherit;top=0;left=0;bottom=0;right=0;collapsible=0;dropTarget=0;fillColor=none;points=[[0,0.5],[1,0.5]];portConstraint=eastwest;fontSize=16;" vertex="1" parent="aB8ThcC7plSNmvLs0VB_-169">
          <mxGeometry y="210" width="450" height="80" as="geometry" />
        </mxCell>
        <mxCell id="aB8ThcC7plSNmvLs0VB_-186" value="FK" style="shape=partialRectangle;html=1;whiteSpace=wrap;connectable=0;strokeColor=inherit;overflow=hidden;fillColor=none;top=0;left=0;bottom=0;right=0;pointerEvents=1;fontSize=16;" vertex="1" parent="aB8ThcC7plSNmvLs0VB_-185">
          <mxGeometry width="60" height="80" as="geometry">
            <mxRectangle width="60" height="80" as="alternateBounds" />
          </mxGeometry>
        </mxCell>
        <mxCell id="aB8ThcC7plSNmvLs0VB_-187" value="par_id" style="shape=partialRectangle;html=1;whiteSpace=wrap;connectable=0;strokeColor=inherit;overflow=hidden;fillColor=none;top=0;left=0;bottom=0;right=0;pointerEvents=1;fontSize=16;" vertex="1" parent="aB8ThcC7plSNmvLs0VB_-185">
          <mxGeometry x="60" width="150" height="80" as="geometry">
            <mxRectangle width="150" height="80" as="alternateBounds" />
          </mxGeometry>
        </mxCell>
        <mxCell id="aB8ThcC7plSNmvLs0VB_-188" value="int" style="shape=partialRectangle;html=1;whiteSpace=wrap;connectable=0;strokeColor=inherit;overflow=hidden;fillColor=none;top=0;left=0;bottom=0;right=0;pointerEvents=1;fontSize=16;" vertex="1" parent="aB8ThcC7plSNmvLs0VB_-185">
          <mxGeometry x="210" width="130" height="80" as="geometry">
            <mxRectangle width="130" height="80" as="alternateBounds" />
          </mxGeometry>
        </mxCell>
        <mxCell id="aB8ThcC7plSNmvLs0VB_-189" value="id of horse ticket was bought for" style="shape=partialRectangle;html=1;whiteSpace=wrap;connectable=0;strokeColor=inherit;overflow=hidden;fillColor=none;top=0;left=0;bottom=0;right=0;pointerEvents=1;fontSize=16;" vertex="1" parent="aB8ThcC7plSNmvLs0VB_-185">
          <mxGeometry x="340" width="110" height="80" as="geometry">
            <mxRectangle width="110" height="80" as="alternateBounds" />
          </mxGeometry>
        </mxCell>
        <mxCell id="aB8ThcC7plSNmvLs0VB_-190" style="shape=tableRow;horizontal=0;startSize=0;swimlaneHead=0;swimlaneBody=0;strokeColor=inherit;top=0;left=0;bottom=0;right=0;collapsible=0;dropTarget=0;fillColor=none;points=[[0,0.5],[1,0.5]];portConstraint=eastwest;fontSize=16;" vertex="1" parent="aB8ThcC7plSNmvLs0VB_-169">
          <mxGeometry y="290" width="450" height="90" as="geometry" />
        </mxCell>
        <mxCell id="aB8ThcC7plSNmvLs0VB_-191" style="shape=partialRectangle;html=1;whiteSpace=wrap;connectable=0;strokeColor=inherit;overflow=hidden;fillColor=none;top=0;left=0;bottom=0;right=0;pointerEvents=1;fontSize=16;" vertex="1" parent="aB8ThcC7plSNmvLs0VB_-190">
          <mxGeometry width="60" height="90" as="geometry">
            <mxRectangle width="60" height="90" as="alternateBounds" />
          </mxGeometry>
        </mxCell>
        <mxCell id="aB8ThcC7plSNmvLs0VB_-192" value="ticket_status" style="shape=partialRectangle;html=1;whiteSpace=wrap;connectable=0;strokeColor=inherit;overflow=hidden;fillColor=none;top=0;left=0;bottom=0;right=0;pointerEvents=1;fontSize=16;align=center;" vertex="1" parent="aB8ThcC7plSNmvLs0VB_-190">
          <mxGeometry x="60" width="150" height="90" as="geometry">
            <mxRectangle width="150" height="90" as="alternateBounds" />
          </mxGeometry>
        </mxCell>
        <mxCell id="aB8ThcC7plSNmvLs0VB_-193" value="enum" style="shape=partialRectangle;html=1;whiteSpace=wrap;connectable=0;strokeColor=inherit;overflow=hidden;fillColor=none;top=0;left=0;bottom=0;right=0;pointerEvents=1;fontSize=16;" vertex="1" parent="aB8ThcC7plSNmvLs0VB_-190">
          <mxGeometry x="210" width="130" height="90" as="geometry">
            <mxRectangle width="130" height="90" as="alternateBounds" />
          </mxGeometry>
        </mxCell>
        <mxCell id="aB8ThcC7plSNmvLs0VB_-194" value="default:Active&lt;div&gt;{active, refunded, redeemed}&lt;/div&gt;" style="shape=partialRectangle;html=1;whiteSpace=wrap;connectable=0;strokeColor=inherit;overflow=hidden;fillColor=none;top=0;left=0;bottom=0;right=0;pointerEvents=1;fontSize=16;" vertex="1" parent="aB8ThcC7plSNmvLs0VB_-190">
          <mxGeometry x="340" width="110" height="90" as="geometry">
            <mxRectangle width="110" height="90" as="alternateBounds" />
          </mxGeometry>
        </mxCell>
        <mxCell id="aB8ThcC7plSNmvLs0VB_-195" style="shape=tableRow;horizontal=0;startSize=0;swimlaneHead=0;swimlaneBody=0;strokeColor=inherit;top=0;left=0;bottom=0;right=0;collapsible=0;dropTarget=0;fillColor=none;points=[[0,0.5],[1,0.5]];portConstraint=eastwest;fontSize=16;" vertex="1" parent="aB8ThcC7plSNmvLs0VB_-169">
          <mxGeometry y="380" width="450" height="60" as="geometry" />
        </mxCell>
        <mxCell id="aB8ThcC7plSNmvLs0VB_-196" style="shape=partialRectangle;html=1;whiteSpace=wrap;connectable=0;strokeColor=inherit;overflow=hidden;fillColor=none;top=0;left=0;bottom=0;right=0;pointerEvents=1;fontSize=16;" vertex="1" parent="aB8ThcC7plSNmvLs0VB_-195">
          <mxGeometry width="60" height="60" as="geometry">
            <mxRectangle width="60" height="60" as="alternateBounds" />
          </mxGeometry>
        </mxCell>
        <mxCell id="aB8ThcC7plSNmvLs0VB_-197" value="winning_ticket" style="shape=partialRectangle;html=1;whiteSpace=wrap;connectable=0;strokeColor=inherit;overflow=hidden;fillColor=none;top=0;left=0;bottom=0;right=0;pointerEvents=1;fontSize=16;align=center;" vertex="1" parent="aB8ThcC7plSNmvLs0VB_-195">
          <mxGeometry x="60" width="150" height="60" as="geometry">
            <mxRectangle width="150" height="60" as="alternateBounds" />
          </mxGeometry>
        </mxCell>
        <mxCell id="aB8ThcC7plSNmvLs0VB_-198" value="boolean" style="shape=partialRectangle;html=1;whiteSpace=wrap;connectable=0;strokeColor=inherit;overflow=hidden;fillColor=none;top=0;left=0;bottom=0;right=0;pointerEvents=1;fontSize=16;" vertex="1" parent="aB8ThcC7plSNmvLs0VB_-195">
          <mxGeometry x="210" width="130" height="60" as="geometry">
            <mxRectangle width="130" height="60" as="alternateBounds" />
          </mxGeometry>
        </mxCell>
        <mxCell id="aB8ThcC7plSNmvLs0VB_-199" value="default: 0&lt;div&gt;0: nope&lt;/div&gt;&lt;div&gt;1: winner&lt;/div&gt;" style="shape=partialRectangle;html=1;whiteSpace=wrap;connectable=0;strokeColor=inherit;overflow=hidden;fillColor=none;top=0;left=0;bottom=0;right=0;pointerEvents=1;fontSize=16;" vertex="1" parent="aB8ThcC7plSNmvLs0VB_-195">
          <mxGeometry x="340" width="110" height="60" as="geometry">
            <mxRectangle width="110" height="60" as="alternateBounds" />
          </mxGeometry>
        </mxCell>
        <mxCell id="aB8ThcC7plSNmvLs0VB_-200" value="contains/is contained in" style="endArrow=ERzeroToMany;html=1;rounded=0;startArrow=ERone;startFill=0;entryX=0;entryY=0.5;entryDx=0;entryDy=0;endFill=0;strokeWidth=1;endSize=12;startSize=12;targetPerimeterSpacing=6;sourcePerimeterSpacing=7;exitX=0;exitY=0.5;exitDx=0;exitDy=0;" edge="1" parent="1" source="aB8ThcC7plSNmvLs0VB_-17" target="aB8ThcC7plSNmvLs0VB_-102">
          <mxGeometry width="50" height="50" relative="1" as="geometry">
            <mxPoint x="9" y="-23" as="sourcePoint" />
            <mxPoint x="450" y="90" as="targetPoint" />
            <Array as="points">
              <mxPoint x="300" y="-370" />
              <mxPoint x="300" y="20" />
            </Array>
          </mxGeometry>
        </mxCell>
        <mxCell id="aB8ThcC7plSNmvLs0VB_-207" style="edgeStyle=orthogonalEdgeStyle;rounded=0;orthogonalLoop=1;jettySize=auto;html=1;exitX=1;exitY=0.5;exitDx=0;exitDy=0;entryX=0;entryY=0.5;entryDx=0;entryDy=0;targetPerimeterSpacing=8;sourcePerimeterSpacing=7;endSize=13;startSize=12;endArrow=ERoneToMany;endFill=0;startArrow=ERone;startFill=0;" edge="1" parent="1" source="aB8ThcC7plSNmvLs0VB_-102" target="aB8ThcC7plSNmvLs0VB_-139">
          <mxGeometry relative="1" as="geometry" />
        </mxCell>
        <mxCell id="aB8ThcC7plSNmvLs0VB_-208" value="A sub_event can have many participants&lt;div&gt;An entry in subevent_participant belongs to a single sub_event&lt;/div&gt;" style="text;html=1;align=center;verticalAlign=middle;resizable=0;points=[];autosize=1;strokeColor=none;fillColor=none;" vertex="1" parent="1">
          <mxGeometry x="640" y="-95" width="360" height="40" as="geometry" />
        </mxCell>
        <mxCell id="aB8ThcC7plSNmvLs0VB_-209" value="" style="endArrow=ERoneToMany;html=1;rounded=0;exitX=0.5;exitY=0;exitDx=0;exitDy=0;startArrow=ERone;startFill=0;endFill=0;targetPerimeterSpacing=8;sourcePerimeterSpacing=8;endSize=12;startSize=12;" edge="1" parent="1" source="aB8ThcC7plSNmvLs0VB_-107" target="aB8ThcC7plSNmvLs0VB_-164">
          <mxGeometry width="50" height="50" relative="1" as="geometry">
            <mxPoint x="780" y="400" as="sourcePoint" />
            <mxPoint x="830" y="350" as="targetPoint" />
          </mxGeometry>
        </mxCell>
        <mxCell id="aB8ThcC7plSNmvLs0VB_-212" value="a participant may be in several subevents&lt;div&gt;a subevent entry refers to a single participant&lt;/div&gt;" style="edgeLabel;html=1;align=center;verticalAlign=middle;resizable=0;points=[];" vertex="1" connectable="0" parent="aB8ThcC7plSNmvLs0VB_-209">
          <mxGeometry x="-0.1096" y="-1" relative="1" as="geometry">
            <mxPoint y="-3" as="offset" />
          </mxGeometry>
        </mxCell>
        <mxCell id="aB8ThcC7plSNmvLs0VB_-211" value="a participant may be in several tickets&lt;div&gt;a ticket refers to a single participant&lt;/div&gt;" style="endArrow=ERoneToMany;html=1;rounded=0;exitX=0;exitY=0.5;exitDx=0;exitDy=0;endFill=0;startArrow=ERone;startFill=0;endSize=14;startSize=14;entryX=1;entryY=0.5;entryDx=0;entryDy=0;" edge="1" parent="1" source="aB8ThcC7plSNmvLs0VB_-108" target="aB8ThcC7plSNmvLs0VB_-170">
          <mxGeometry width="50" height="50" relative="1" as="geometry">
            <mxPoint x="708" y="530" as="sourcePoint" />
            <mxPoint x="880" y="530" as="targetPoint" />
          </mxGeometry>
        </mxCell>
        <mxCell id="aB8ThcC7plSNmvLs0VB_-210" value="a ticket refers a single subevent&lt;div&gt;a subevent can have multiple tickets&lt;/div&gt;" style="endArrow=ERoneToMany;html=1;rounded=0;entryX=0.75;entryY=0;entryDx=0;entryDy=0;exitX=-0.001;exitY=0.786;exitDx=0;exitDy=0;endFill=0;startArrow=ERone;startFill=0;endSize=14;startSize=14;exitPerimeter=0;" edge="1" parent="1" source="aB8ThcC7plSNmvLs0VB_-154" target="aB8ThcC7plSNmvLs0VB_-169">
          <mxGeometry width="50" height="50" relative="1" as="geometry">
            <mxPoint x="780" y="500" as="sourcePoint" />
            <mxPoint x="830" y="450" as="targetPoint" />
          </mxGeometry>
        </mxCell>
      </root>
    </mxGraphModel>
  </diagram>
</mxfile>
